# xmcd CD database file
#
# Track frame offsets:
#	150
#	20293
#	40943
#	62738
#	90975
#	110410
#	128607
#	161548
#	189806
#	211055
#	232016
#	256335
#	279886
#	295236
#	326180
#
# Disc length: 4516 seconds
#
# Revision: 0
# Processed by: cddbd v1.5.2PL0 Copyright (c) Steve Scherf et al.
# Submitted via: CDex 1.70beta2
#
DISCID=c511a20f
DTITLE=溝口肇 - the origin of HAJIME MIZOGUCHI
DYEAR=2012
DGENRE=New Age
TTITLE0=Espace (エスパス)
TTITLE1=Offset Of Love
TTITLE2=PLANT AQUARIUM
TTITLE3=Toy for Two ～ふたりでオモチャを
TTITLE4=キリンと月
TTITLE5=シエナへの道
TTITLE6=そら、そこに空　～You Are There
TTITLE7=パラレル・ワールド
TTITLE8=バルコニーの下で
TTITLE9=温かな素足　～Hishaby
TTITLE10=帰水空間
TTITLE11=国境の朝
TTITLE12=砂色のソレイユ
TTITLE13=神様のチェス (I'll Be Checkmate)
TTITLE14=世界の車窓から　～soundscape of 2012
EXTD=YEAR: 2012
EXTT0=
EXTT1=
EXTT2=
EXTT3=
EXTT4=
EXTT5=
EXTT6=
EXTT7=
EXTT8=
EXTT9=
EXTT10=
EXTT11=
EXTT12=
EXTT13=
EXTT14=
PLAYORDER=
